<svg xmlns:xlink="http://www.w3.org/1999/xlink" xmlns="http://www.w3.org/2000/svg" height="101" width="410" style="width: 410px; height: 101px; position: absolute; top: 50%; left: 50%; transform: translate(-50%, -50%) scale(1); z-index: 0; cursor: pointer; overflow: visible;"><defs id="SvgjsDefs1001"><linearGradient id="SvgjsLinearGradient1013"><stop id="SvgjsStop1014" stop-color="#ef4136" offset="0"></stop><stop id="SvgjsStop1015" stop-color="#fbb040" offset="1"></stop></linearGradient><linearGradient id="SvgjsLinearGradient1013"><stop id="SvgjsStop1014" stop-color="#ef4136" offset="0"></stop><stop id="SvgjsStop1015" stop-color="#fbb040" offset="1"></stop></linearGradient><linearGradient id="SvgjsLinearGradient1013"><stop id="SvgjsStop1014" stop-color="#ef4136" offset="0"></stop><stop id="SvgjsStop1015" stop-color="#fbb040" offset="1"></stop></linearGradient></defs><g id="SvgjsG1007" featurekey="rootContainer" transform="matrix(1,0,0,1,0,0)" fill="#2E2B2B"><rect xmlns="http://www.w3.org/2000/svg" width="410" height="101" rx="10" ry="10" fill="#2E2B2B"></rect></g><g id="SvgjsG1008" featurekey="5TMTKC-0" transform="matrix(0.7494181926415378,0,0,0.7494181926415378,17.531265381383996,12.711319591854338)" fill="url(&quot;#SvgjsLinearGradient1013&quot;)"><path xmlns="http://www.w3.org/2000/svg" d="M17,25.3c0.5,0.7,0.2,1.6-0.5,2.1s-1.6,0.2-2.1-0.5c-0.4-0.7-0.2-1.5,0.5-1.9C15.7,24.6,16.6,24.7,17,25.3z M32.7,15.9  l-11.4,6.2c-0.4,0.2-0.6,0.8-0.4,1.2c0.2,0.3,0.5,0.5,0.8,0.5c0.1,0,0.3,0,0.4-0.1l11.4-6.2c0.4-0.2,0.6-0.8,0.4-1.2  C33.7,15.8,33.1,15.6,32.7,15.9z M77.3,65.7c-2.4,0-4.3,1.6-4.3,3.6s1.9,3.6,4.3,3.6c2.4,0,4.3-1.6,4.3-3.6S79.7,65.7,77.3,65.7z   M96.7,68.3c0,3.3-1.6,6.3-4.3,8.1L71.9,89.9c-1.6,1.1-3.5,1.6-5.3,1.6c-2.4,0-4.7-0.9-6.6-2.6L6.4,39.7c-2-1.9-3.2-4.5-3.1-7.2  l0-4.1l0-1.6l0,0c0-0.1,0-0.2,0.1-0.3c0.4-1.9,1.6-3.6,3.5-4.5l22-11.3c3.5-2,8.5-0.7,11,1.9l55.1,47.1c0.8,0.9,1.3,1.8,1.6,2.9  c0.1,0.3,0.1,0.5,0.1,0.7L96.7,68.3z M11.2,35.2L43.6,18l-4.8-4.1c-0.1-0.1-0.1-0.1-0.2-0.2c-1.3-1.4-3.6-2.3-5.8-2.3  c-1.1,0-2.1,0.2-3,0.7l0,0l-22,11.3c-1.4,0.7-2.3,2-2.6,3.4l0,1.4c0,0.2,0,0.3,0.1,0.5c0.2,0.7,0.6,1.3,1.1,1.8L11.2,35.2z   M53.1,73.8l31.6-20.6L45,19.2L12.6,36.4L53.1,73.8z M94.9,64.1c0-1.2-0.4-2.4-1.2-3.3l-7.6-6.5L54.4,75l8.7,8  c0.9,1,2.1,1.5,3.4,1.5c1.1,0,2.4-0.4,3.2-1.3c0.1-0.1,0.3-0.2,0.4-0.3L93,67.6c0.6-0.4,1-0.8,1.3-1.3  C94.7,65.7,94.9,64.9,94.9,64.1z" fill="url(&quot;#SvgjsLinearGradient1013&quot;)"></path></g><g id="SvgjsG1009" featurekey="7UBp9i-0" transform="matrix(2.681992297965561,0,0,2.681992297965561,108.12260462409995,15.908048769953805)" fill="#FFFFFF"><path d="M10.8 17 c0 1.6 -1.4 3 -3.4 3 l-6.7 0 l0 -2.2 l5.9 0 c1 0 1.6 -0.6 1.6 -1.4 l0 -0.7 c0 -0.8 -0.3 -1.2 -0.8 -1.3 l-4.1 -0.9 c-1.4 -0.3 -2.5 -1.4 -2.5 -3.1 l0 -1.4 c0 -1.6 1.4 -3 3.4 -3 l6.2 0 l0 1.5 l-0.7 0.7 l-4.7 0 c-1 0 -1.6 0.6 -1.6 1.4 l0 0.5 c0 0.8 0.3 1.1 0.8 1.2 l4.1 0.9 c1.4 0.3 2.5 1.4 2.5 3.2 l0 1.6 z M23.3 9.6 l1.6 0 c1.7 0 2.9 1.2 2.9 2.7 l0 7.7 l-2.5 0 l0 -7.3 c0 -0.6 -0.4 -1 -1.1 -1 l-1.6 0 c-0.7 0 -1.1 0.4 -1.1 1 l0 7.3 l-2.5 0 l0 -7.3 c0 -0.6 -0.4 -1 -1.1 -1 l-1.1 0 c-1.1 0 -1.6 1.1 -1.6 1.1 l0 7.2 l-2.5 0 l0 -10.2 l1.7 0 l0.3 1.2 l0.2 0 s0.8 -1.4 2.3 -1.4 l1 0 c1.9 0 2.5 1.3 2.5 1.3 l0.1 0 s0.6 -1.3 2.5 -1.3 z M38.7 20 l-1.7 0 l-0.3 -1.2 l-0.2 0 s-0.8 1.4 -2.3 1.4 l-1.6 0 c-1.7 0 -2.9 -1.2 -2.9 -2.7 l0 -1.1 c0 -1.5 1.2 -2.7 2.9 -2.7 l3.6 0 l0 -0.7 c0 -0.7 -0.4 -1.1 -1.1 -1.1 l-4.5 0 l0 -2.1 l5.2 0 c1.7 0 2.9 1.2 2.9 2.7 l0 7.5 z M34.6 18.1 c1.1 0 1.6 -1.1 1.6 -1.1 l0 -1.2 l-3 0 c-0.6 0 -1 0.4 -1 1 l0 0.3 c0 0.6 0.4 1 1 1 l1.4 0 z M47.5 9.6 l0 2.2 l-2.3 0 c-1.1 0 -1.6 1 -1.6 1 l0 7.2 l-2.5 0 l0 -10.2 l1.7 0 l0.3 1.2 l0.2 0 s0.8 -1.4 2.3 -1.4 l1.9 0 z M48.099999999999994 11.9 l0 -2.1 l1.5 0 l1 -2.9 l1.5 0 l0 2.9 l2.5 0 l0 2.1 l-2.5 0 l0 5 c0 0.6 0.4 1 1.1 1 l2 0 l0 2.1 l-2.7 0 c-1.7 0 -2.9 -1.2 -2.9 -2.7 l0 -5.4 l-1.5 0 z M67.3 12.5 c0 1.8 -1.3 3.1 -3.3 3.1 l-4.4 0 l0 4.4 l-2.6 0 l0 -14 l7 0 c2 0 3.3 1.3 3.3 3.1 l0 3.4 z M59.599999999999994 8.2 l0 5.2 l3.7 0 c0.8 0 1.4 -0.6 1.4 -1.3 l0 -2.6 c0 -0.7 -0.6 -1.3 -1.4 -1.3 l-3.7 0 z M76 9.8 l2.5 0 l0 10.2 l-1.7 0 l-0.3 -1.2 l-0.2 0 s-0.8 1.4 -2.3 1.4 l-1.8 0 c-1.7 0 -2.9 -1.2 -2.9 -2.7 l0 -7.7 l2.5 0 l0 7.3 c0 0.6 0.4 1 1.1 1 l1.5 0 c1.1 0 1.6 -1.1 1.6 -1.1 l0 -7.2 z M81.1 6 l2.5 0 l0 10.9 c0 0.6 0.4 1 1.1 1 l0.6 0 l0 2.1 l-1.3 0 c-1.72 0 -2.9 -1.2 -2.9 -2.7 l0 -11.3 z M92.09999999999998 17 c0 -0.5 -0.3 -0.82 -0.8 -0.9 l-2.8 -0.5 c-1.2 -0.2 -2.3 -1.3 -2.3 -2.7 l0 -0.4 c0 -1.5 1.2 -2.7 2.9 -2.7 l5.1 0 l0 1.5 l-0.6 0.6 l-3.9 0 c-0.6 0 -1 0.4 -1 0.8 c0 0.58 0.2 0.9 0.8 1 l2.9 0.5 c1.2 0.2 2.2 1.2 2.2 2.6 l0 0.5 c0 1.5 -1.2 2.7 -2.9 2.7 l-5.6 0 l0 -2.1 l5.1 0 c0.6 0 0.9 -0.3 0.9 -0.9 z M105.1 12.3 l0 3.6 l-6.5 0 l0 1 c0 0.6 0.4 1 1.1 1 l5 0 l0 2.1 l-5.7 0 c-1.7 0 -2.9 -1.2 -2.9 -2.7 l0 -5 c0 -1.5 1.2 -2.7 2.9 -2.7 l3.2 0 c1.7 0 2.9 1.2 2.9 2.7 z M98.6 12.7 l0 1.1 l4 0 l0 -1.1 c0 -0.6 -0.4 -1 -1.1 -1 l-1.8 0 c-0.7 0 -1.1 0.4 -1.1 1 z" fill="#FFFFFF"></path></g></svg>