<svg xmlns:xlink="http://www.w3.org/1999/xlink" xmlns="http://www.w3.org/2000/svg" class="css-ze2te4 css-qd6ojx" viewBox="0 0 70 61.28308493325592" width="32"  height="28.015124540916993" ><defs><linearGradient id="SvgjsLinearGradient1023"><stop id="SvgjsStop1024" stop-color="#ef4136" offset="0"></stop><stop id="SvgjsStop1025" stop-color="#fbb040" offset="1"></stop></linearGradient><linearGradient id="SvgjsLinearGradient1023"><stop id="SvgjsStop1024" stop-color="#ef4136" offset="0"></stop><stop id="SvgjsStop1025" stop-color="#fbb040" offset="1"></stop></linearGradient></defs><g transform="translate(-2.468734618616006, -7.288680408145662) scale(0.7494181926415378)" class="css-1d2riyi" fill="url(&quot;#SvgjsLinearGradient1023&quot;)"><path xmlns="http://www.w3.org/2000/svg" d="M17,25.3c0.5,0.7,0.2,1.6-0.5,2.1s-1.6,0.2-2.1-0.5c-0.4-0.7-0.2-1.5,0.5-1.9C15.7,24.6,16.6,24.7,17,25.3z M32.7,15.9  l-11.4,6.2c-0.4,0.2-0.6,0.8-0.4,1.2c0.2,0.3,0.5,0.5,0.8,0.5c0.1,0,0.3,0,0.4-0.1l11.4-6.2c0.4-0.2,0.6-0.8,0.4-1.2  C33.7,15.8,33.1,15.6,32.7,15.9z M77.3,65.7c-2.4,0-4.3,1.6-4.3,3.6s1.9,3.6,4.3,3.6c2.4,0,4.3-1.6,4.3-3.6S79.7,65.7,77.3,65.7z   M96.7,68.3c0,3.3-1.6,6.3-4.3,8.1L71.9,89.9c-1.6,1.1-3.5,1.6-5.3,1.6c-2.4,0-4.7-0.9-6.6-2.6L6.4,39.7c-2-1.9-3.2-4.5-3.1-7.2  l0-4.1l0-1.6l0,0c0-0.1,0-0.2,0.1-0.3c0.4-1.9,1.6-3.6,3.5-4.5l22-11.3c3.5-2,8.5-0.7,11,1.9l55.1,47.1c0.8,0.9,1.3,1.8,1.6,2.9  c0.1,0.3,0.1,0.5,0.1,0.7L96.7,68.3z M11.2,35.2L43.6,18l-4.8-4.1c-0.1-0.1-0.1-0.1-0.2-0.2c-1.3-1.4-3.6-2.3-5.8-2.3  c-1.1,0-2.1,0.2-3,0.7l0,0l-22,11.3c-1.4,0.7-2.3,2-2.6,3.4l0,1.4c0,0.2,0,0.3,0.1,0.5c0.2,0.7,0.6,1.3,1.1,1.8L11.2,35.2z   M53.1,73.8l31.6-20.6L45,19.2L12.6,36.4L53.1,73.8z M94.9,64.1c0-1.2-0.4-2.4-1.2-3.3l-7.6-6.5L54.4,75l8.7,8  c0.9,1,2.1,1.5,3.4,1.5c1.1,0,2.4-0.4,3.2-1.3c0.1-0.1,0.3-0.2,0.4-0.3L93,67.6c0.6-0.4,1-0.8,1.3-1.3  C94.7,65.7,94.9,64.9,94.9,64.1z" fill="url(&quot;#SvgjsLinearGradient1023&quot;)"></path></g></svg>