<?xml version="1.0"?>
<svg width="100" height="100" xmlns="http://www.w3.org/2000/svg" xmlns:svg="http://www.w3.org/2000/svg" transform="translate(-50%, -50%) scale(1)">
 <defs id="SvgjsDefs1001">
  <linearGradient id="SvgjsLinearGradient1013">
   <stop id="SvgjsStop1014" offset="0" stop-color="#ef4136"/>
   <stop id="SvgjsStop1015" offset="1" stop-color="#fbb040"/>
  </linearGradient>
 </defs>
 <g class="layer">
  <title>Layer 1</title>
  <g fill="#2E2B2B" id="SvgjsG1007" transform="matrix(1 0 0 1 0 0)">
   <rect fill="#2E2B2B" height="101" id="svg_7" rx="10" ry="10" width="113" xmlns="http://www.w3.org/2000/svg"/>
  </g>
  <g fill="url(&quot;#SvgjsLinearGradient1013&quot;)" id="SvgjsG1008" transform="matrix(0.7494181926415378,0,0,0.7494181926415378,17.531265381383996,12.711319591854338)">
   <path d="m17,25.3c0.5,0.7 0.2,1.6 -0.5,2.1s-1.6,0.2 -2.1,-0.5c-0.4,-0.7 -0.2,-1.5 0.5,-1.9c0.8,-0.4 1.7,-0.3 2.1,0.3zm15.7,-9.4l-11.4,6.2c-0.4,0.2 -0.6,0.8 -0.4,1.2c0.2,0.3 0.5,0.5 0.8,0.5c0.1,0 0.3,0 0.4,-0.1l11.4,-6.2c0.4,-0.2 0.6,-0.8 0.4,-1.2c-0.2,-0.5 -0.8,-0.7 -1.2,-0.4zm44.6,49.8c-2.4,0 -4.3,1.6 -4.3,3.6s1.9,3.6 4.3,3.6c2.4,0 4.3,-1.6 4.3,-3.6s-1.9,-3.6 -4.3,-3.6zm19.4,2.6c0,3.3 -1.6,6.3 -4.3,8.1l-20.5,13.5c-1.6,1.1 -3.5,1.6 -5.3,1.6c-2.4,0 -4.7,-0.9 -6.6,-2.6l-53.6,-49.2c-2,-1.9 -3.2,-4.5 -3.1,-7.2l0,-4.1l0,-1.6l0,0c0,-0.1 0,-0.2 0.1,-0.3c0.4,-1.9 1.6,-3.6 3.5,-4.5l22,-11.3c3.5,-2 8.5,-0.7 11,1.9l55.1,47.1c0.8,0.9 1.3,1.8 1.6,2.9c0.1,0.3 0.1,0.5 0.1,0.7l0,5zm-85.5,-33.1l32.4,-17.2l-4.8,-4.1c-0.1,-0.1 -0.1,-0.1 -0.2,-0.2c-1.3,-1.4 -3.6,-2.3 -5.8,-2.3c-1.1,0 -2.1,0.2 -3,0.7l0,0l-22,11.3c-1.4,0.7 -2.3,2 -2.6,3.4l0,1.4c0,0.2 0,0.3 0.1,0.5c0.2,0.7 0.6,1.3 1.1,1.8l4.8,4.7zm41.9,38.6l31.6,-20.6l-39.7,-34l-32.4,17.2l40.5,37.4zm41.8,-9.7c0,-1.2 -0.4,-2.4 -1.2,-3.3l-7.6,-6.5l-31.7,20.7l8.7,8c0.9,1 2.1,1.5 3.4,1.5c1.1,0 2.4,-0.4 3.2,-1.3c0.1,-0.1 0.3,-0.2 0.4,-0.3l22.9,-15.3c0.6,-0.4 1,-0.8 1.3,-1.3c0.4,-0.6 0.6,-1.4 0.6,-2.2z" fill="url(&quot;#SvgjsLinearGradient1013&quot;)" id="svg_8" xmlns="http://www.w3.org/2000/svg"/>
  </g>
 </g>
</svg>